# xmcd
#
# Track frame offsets:
# 150
# 5597
# 28584
# 41392
# 54726
#
# Disc length: 988 seconds
#
# Revision: 1
# Processed by: cddbd v1.5.2PL0 Copyright (c) Steve Scherf et al.
# Submitted via: CedeCatalogueitor 2.6.0.6 http://personales.ya.com/cdcatalogueitor
#
DISCID=3603da05
DTITLE=These New Puritans - Hidden:remixes
DYEAR=1900
DGENRE=
TTITLE0=Introduction
TTITLE1=We Want War (SBTRKT)
TTITLE2=Main Attraktions 300
TTITLE3=Hologram (Salem)
TTITLE4=We Want War (Ghost Hunter)
EXTD=
EXTT0=
EXTT1=
EXTT2=
EXTT3=
EXTT4=
PLAYORDER=
